Patient4_TMGait_0pt8_01_right_34_EMG.mot
version=1
nRows=33
nColumns=33
inDegrees=no
endheader
time	1LAddLong	2LGlutMax	3LGlutMed	4LIliopsoas	5LSemiMemb	6LBicFemLong	7LRecFem	8LVastMed	9LVastLat	10LGasMed	11LTibAnt	12lTibPost	13LPeroneusLong	14LSol	15LExtDigLong	16LFlexDigLong	17RAddLong	18RGlutMax	19RGlutMed	20RIliopsoas	21RSemiMemb	22RBicFemLong	23RRecFem	24RVastMed	25RVastLat	26RGasMed	27RTibAnt	28RTibPost	29RPeroneusLong	30RSol	31RExtDigLong	32RFlexDigLong
39.248	0.00061	0.22522	-0.0354	-0.000458	0.005951	-0.048218	0.31235	-0.001373	0.007019	-0.12207	0.050507	0.008087	0.21179	-0.052185	-0.087585	-0.003967	0.035553	-0.12512	-0.069122	0.023193	-0.007172	-0.15854	-0.060577	-0.092773	0.034332	-0.026398	0.066833	-0.003662	-0.28275	-0.041351	0.010223	0.058136
39.249	0.004578	0.20584	0.033112	0.010376	0.006866	-0.014191	0.34943	-0.002136	0.074615	-0.04715	-0.014954	0.006104	0.45715	0.019226	-0.1358	-0.008545	-0.009918	-0.13138	-0.10757	-0.024872	-0.095673	-0.12024	-0.026245	-0.13473	0.028229	-0.032501	-0.042725	-0.00473	0.034637	0.002136	0.001068	0.055847
39.25	-0.005035	0.25253	-0.04303	-0.014191	-0.001068	0.02243	0.48019	0.00061	0.049286	0.006866	-0.065765	-0.006714	-0.093994	0.14771	-0.10986	0.014038	0.018768	-0.17395	-0.13931	0.000458	-0.16357	-0.088196	-0.029297	-0.14893	0.019836	-0.045166	-0.094299	-0.005188	0.097504	0.052032	0.001221	0.051117
39.251	-0.002136	0.23086	-0.062561	-0.019073	-0.014496	0.021362	0.54565	0.005341	0.024872	-0.017853	-0.15305	0.002441	0.17929	0.13779	-0.032654	-0.007324	0.030823	-0.13428	-0.19012	0.012054	-0.027924	-0.029297	-0.024567	-0.14038	0.024719	-0.047455	-0.038757	0.001068	0.093842	0.011292	0.007629	0.049438
39.252	-0.002594	0.19348	-0.063477	0.005646	-0.019226	0.039215	0.50919	0.00473	0.009003	0.046997	-0.13718	0.009918	-0.15732	0.008545	-0.059509	-0.005951	0.13534	-0.12024	-0.19913	0.012207	0.037994	0.002441	-0.075226	-0.06958	0.027771	-0.056458	0.10925	-0.00412	0.077667	-0.057678	0.00351	0.026093
39.253	-0.000305	0.24429	-0.014954	0.026398	-0.025024	0.036926	0.46158	0.006561	0.009918	0.064545	-0.075836	0.007782	-0.10895	0.020447	-0.051117	-0.004883	0.19791	-0.068359	-0.27802	0.085297	-0.035706	-0.028381	-0.004883	-0.057068	0.011597	-0.052643	0.15915	-0.006561	0.12711	-0.026703	0.001831	0.032349
39.254	-0.00061	0.2388	0.050812	0.010986	0.007935	0.008087	0.43594	-0.001068	0.020294	-0.10315	-0.077515	0.006104	0.013885	0.008698	-0.039368	-0.008392	0.15579	-0.07782	-0.3624	0.12131	0.013885	0.018921	-0.007935	-0.10391	0.015564	-0.047455	0.19562	0.000763	0.098114	-0.014801	0.001221	0.022125
39.255	-0.001221	0.23315	0.11993	-0.004425	0.035706	-0.02533	0.42801	0.00351	0.015106	-0.16113	0.12405	0.005035	0.027924	0.099335	0.031281	0.010529	0.042419	-0.016937	-0.40192	0.17593	-0.024414	0.084991	0.01236	-0.12558	-0.013275	-0.016937	0.19119	-0.011749	0.082092	0.007172	0.003204	0.018463
39.256	-0.002441	0.27878	0.15762	0.007782	0.016632	-0.015411	0.43686	0.003204	0.001678	-0.082397	0.22873	0.007019	0.005035	0.059814	0.10803	-0.007782	-0.058899	0.047607	-0.39795	0.14114	-0.21561	0.098572	-0.019989	-0.11597	-0.026855	-0.024872	0.027161	-0.012665	0.13153	-0.013885	0.002136	0.014038
39.257	-0.003662	0.2861	0.12131	0.022583	-0.023041	-0.006104	0.4245	0.010529	-0.014801	-0.06073	0.13596	0.001678	0.064545	-0.041199	0.13306	-0.001221	-0.1384	0.000458	-0.44022	-0.020752	-0.25513	0.29037	-0.000763	-0.13077	-0.012054	-0.028076	-0.12543	-0.002899	0.093842	-0.06897	0.003967	0.016479
39.258	-0.011444	0.3038	-0.055542	0.016327	-0.056458	-0.028687	0.41794	0.002441	-0.009766	-0.17868	0.04364	-0.002441	0.045929	0.013733	0.13016	-0.001526	-0.14786	-0.016937	-0.37582	-0.099792	-0.038452	0.097351	0.010071	-0.12466	-0.032349	-0.014038	-0.09613	0.004883	0.042114	-0.021973	-0.00412	0.002594
39.259	-0.000458	0.36087	-0.082855	0.011139	-0.030212	-0.037689	0.39352	0.009308	-0.018158	-0.19073	0.027618	-0.000916	-0.17425	-0.014191	0.12817	-0.006256	-0.14221	0.004272	-0.027008	-0.069885	-0.10422	-0.052948	0.000458	-0.15778	-0.022125	-0.023193	-0.006409	-0.003357	-0.17319	-0.037689	0.002289	0.004425
39.26	-0.004272	0.31403	-0.010529	-0.014343	0.017853	-0.038605	0.3804	0.000458	-0.014648	-0.23285	0.057983	0.005646	-0.15976	-0.18433	0.006714	-0.018463	-0.12726	-0.016785	-0.092316	-0.1001	-0.092316	-0.082855	-0.01709	-0.13473	-0.019989	-0.018005	0.018005	-0.005798	-0.079803	0.000305	0.001678	0.019073
39.261	-0.013123	0.31632	0.091858	-0.003204	0.005798	-0.027618	0.383	0.00473	-0.029144	-0.039368	0.056915	0.002289	-0.22034	-0.27512	0.023346	-0.010529	-0.096283	-0.004578	-0.081482	-0.16861	-0.16083	-0.17014	-0.061493	-0.065308	-0.005951	-0.016174	0.015869	-0.010681	0.068359	0.086517	0	0.032043
39.262	0.009766	0.30106	0.23148	-0.001373	0.00946	-0.019836	0.36697	-0.002899	-0.022583	0.048828	0.05249	-0.001221	-0.17944	-0.21759	0.04715	-0.003357	-0.049438	-0.037994	0.10239	-0.16434	-0.1033	-0.2066	-0.069275	0	0.022736	-0.011597	-0.004272	-0.009613	0.20828	0.018463	0.002594	0.028381
39.263	0.015106	0.28885	0.11459	0.011292	0.072937	-0.012054	0.36819	-0.00473	-0.011902	-0.022736	-0.049591	0.002899	-0.067444	-0.17227	0.11383	-0.002594	-0.00824	-0.050812	-0.058136	-0.11383	-0.046844	-0.27023	-0.052643	-0.028839	0.006714	-0.014496	0.01709	-0.00824	0.28381	-0.040283	0.000458	0.018616
39.264	0.015106	0.27115	0.20996	-0.003357	0.04425	0.013428	0.35812	-0.005493	-0.014191	-0.063019	0.014801	0.003967	-0.07019	-0.099335	0.12207	-0.007782	0.045929	-0.072327	0.24445	-0.14969	-0.2594	-0.21973	-0.030823	-0.04776	0.012665	-0.011749	0.032501	-0.005798	-0.29648	-0.046692	0.003052	0.019379
39.265	0.015564	0.2449	0.18066	0.005493	0.048981	0.015869	0.34744	-0.002594	0.036011	0.002441	0.11307	0.012512	-0.065613	-0.068817	0.048981	-0.001526	0.026398	-0.055389	0.42068	-0.12619	-0.22827	0.019531	-0.044556	-0.069733	0.00061	-0.01236	0.027161	-0.008392	-0.25772	0.028229	0.000305	0.016327
39.266	0.014343	0.26169	0.112	-0.007019	0.079041	0.011902	0.34897	-0.013275	0.036316	0.06546	0.12146	0.01358	-0.13428	0.011444	0.022278	-0.001984	-0.007477	-0.11414	0.2449	0.096741	-0.042419	0.16861	-0.065765	-0.055237	0.029907	-0.016785	0.076599	-0.007172	-0.02533	0.019379	0.003052	0.00824
39.267	0.022888	0.20599	0.11932	-0.013428	0.049896	-0.0177	0.3331	-0.003815	0.040131	0.013885	0.075684	0.001831	-0.000305	0.017395	0.019836	0.001221	-0.023804	-0.15045	-0.098877	0.30167	-0.11093	0.08316	-0.040588	-0.062256	0.032501	-0.020752	0.11993	-0.011292	-0.066071	0.000458	-0.001221	0.00473
39.268	0.015717	0.17838	0.071564	-0.010986	0.031738	-0.075226	0.30518	-0.001221	-0.044861	0.038452	-0.13733	0.000305	0.17929	-0.059204	0.000153	-0.006866	-0.074921	-0.12909	-0.31906	0.20493	0.03891	0.13123	-0.054016	0.012207	0.031128	-0.028076	0.12405	-0.010376	0.00351	0.013733	0.001373	-0.009918
39.269	0.002594	0.16083	0.070953	0.00473	0.036621	-0.069275	0.30975	0.014954	-0.062561	0.095673	-0.008698	0.00946	0.15457	-0.10361	0.47287	-0.03952	-0.070801	-0.12787	-0.51819	0.10376	0.067444	0.20813	-0.10452	0.076447	0.061188	-0.028381	0.097046	-0.01236	0.09964	0.012054	0.001068	-0.015564
39.27	0.005951	0.17609	-0.008545	0.008087	0.030365	-0.046387	0.31784	0.007172	-0.028229	0.15289	-0.030975	0.010834	0.1149	-0.065308	0.032501	-0.003662	-0.061646	-0.066223	-0.35568	0.021973	0.22812	0.17395	-0.072784	0.066376	0.062866	-0.031433	-0.03067	-0.011139	0.15747	0.00351	0.002441	-0.024109
39.271	0.004272	0.18921	0.052795	0.010529	-0.000916	0	0.345	0.019989	-0.009918	0.28595	0.033112	0.006714	0.37476	-0.10712	0.19287	-0.007477	-0.036621	-0.005188	0.036163	-0.093079	0.17746	0.13275	-0.10315	0.043793	0.051727	-0.038147	-0.050659	-0.013123	0.22888	-0.001526	0.001373	-0.018768
39.272	0.003662	0.16708	0.17151	0.009766	-0.02243	-0.02182	0.35461	0.001373	0.001526	0.36972	0.18188	0.010376	0.22064	-0.099945	-0.097656	-0.029755	-0.013275	-0.007477	0.49072	-0.1149	0.038147	0.034637	-0.090179	-0.029449	0.031433	-0.044556	-0.015106	-0.010681	0.14389	-0.021057	-0.000458	-0.022125
39.273	0.013275	0.080566	0.168	0.014801	-0.02594	-0.037231	0.34454	0.009003	-0.027618	0.31403	0.12833	0.011292	0.013885	-0.12192	-0.5014	-0.041199	0.02533	-0.082703	0.10193	-0.11002	0.11673	-0.063019	-0.075989	-0.076294	0.034332	-0.055847	0.075226	-0.010223	-0.084534	-0.085144	-0.001526	-0.014038
39.274	-0.002594	-0.001831	0.075378	0.019531	-0.039215	-0.046539	0.31128	0.021667	-0.054321	0.15976	-0.10315	0.006561	-0.19486	-0.16541	-0.30853	0.001526	0.079041	-0.10574	-0.36819	-0.060425	0.22217	-0.090179	-0.072021	-0.1149	0.036469	-0.08606	0.14557	-0.010376	-0.68237	-0.063477	-0.001526	-0.022125
39.275	-0.003204	0.014648	0.056	-0.010223	-0.060272	-0.027008	0.30975	0.001068	-0.045624	0.089264	-0.22415	0.008392	0.067444	-0.22583	-0.3215	0.005188	0.09201	-0.08728	-0.30945	0.031433	0.25009	-0.094299	-0.063324	-0.14618	0.025024	-0.11826	0.20447	-0.011749	-0.78247	-0.05722	0.001221	-0.016632
39.276	-0.009308	0.013275	0.11948	-0.015259	0.018768	-0.030823	0.30807	-0.047455	-0.014343	-0.10422	-0.20401	0.002747	0.03418	-0.19638	-0.26566	-0.014954	0.019531	-0.096588	-0.25391	0.13794	0.16174	-0.10422	-0.069885	-0.11261	0.032501	-0.1326	0.099487	-0.011749	0.25162	-0.089569	0	0.002136
39.277	0.006866	0.007935	0.1059	-0.001678	0.041199	-0.026093	0.28625	0.006561	-0.003662	-0.15717	-0.1445	0.001984	-0.11688	-0.10529	-0.15381	-0.019226	-0.045624	-0.071869	-0.36682	0.16846	-0.27023	0.068817	-0.12299	-0.055847	0.052643	-0.17471	-0.13596	-0.009003	0.84793	-0.061951	0.000458	0.000458
39.278	0.009766	0.017395	0.092773	0.004272	0.017548	-0.006714	0.27084	0.005798	-0.01358	-0.20477	-0.081635	0.006866	-0.083466	-0.005188	-0.06424	-0.012665	-0.055389	-0.10391	-0.34927	0.15137	-0.44586	0.22217	-0.054321	-0.029449	0.017395	-0.23819	-0.11551	-0.012665	0.13031	-0.029755	0.000458	0.003662
39.279	0.014648	0.004578	0.089874	0.010223	0.006866	-0.006104	0.27115	-0.003967	-0.041504	0.003815	-0.056152	0.004425	0.021667	0.005493	-0.011902	-0.007324	-0.037994	-0.087738	-0.35202	0.11688	-0.2092	0.16144	-0.049286	0.011597	0.019684	-0.32806	0.12375	-0.009918	-0.12665	-0.046692	0.002136	0.004883
39.28	0.011749	-0.040436	0.071564	-0.00946	0.027313	0.015411	0.27054	-0.000763	-0.13534	0.077057	-0.029755	0.004578	-0.074921	-0.11658	0	-0.005188	-0.026093	-0.06958	-0.31921	0.099487	0.016632	0.04425	-0.068054	-0.021515	0.039063	-0.33615	0.3157	-0.012512	0.21622	0.000153	0.000305	0.012207
